<?xml version="1.0" encoding="UTF-8"?>
<!DOCTYPE svg PUBLIC "-//W3C//DTD SVG 1.1//EN" "http://www.w3.org/Graphics/SVG/1.1/DTD/svg11.dtd">
<svg xmlns="http://www.w3.org/2000/svg" version="1.1" width="142px" height="146px" style="shape-rendering:geometricPrecision; text-rendering:geometricPrecision; image-rendering:optimizeQuality; fill-rule:evenodd; clip-rule:evenodd" xmlns:xlink="http://www.w3.org/1999/xlink">
<g><path style="opacity:0.986" fill="#fffefe" d="M -0.5,84.5 C -0.5,76.1667 -0.5,67.8333 -0.5,59.5C 10.6406,19.0697 37.3073,-0.0969607 79.5,2C 117.283,10.117 137.616,33.4504 140.5,72C 137.616,110.55 117.283,133.883 79.5,142C 37.3073,144.097 10.6406,124.93 -0.5,84.5 Z"/></g>
<g><path style="opacity:1" fill="#f53e3d" d="M 73.5,61.5 C 77.7675,61.8693 81.7675,62.8693 85.5,64.5C 84.9084,67.1272 84.5751,69.7938 84.5,72.5C 80.8333,72.5 77.1667,72.5 73.5,72.5C 73.6665,83.1719 73.4998,93.8385 73,104.5C 68.9341,105.464 64.7675,105.797 60.5,105.5C 60.5,94.5 60.5,83.5 60.5,72.5C 56.8333,72.5 53.1667,72.5 49.5,72.5C 49.5,68.8333 49.5,65.1667 49.5,61.5C 53.1667,61.5 56.8333,61.5 60.5,61.5C 59.6956,43.3102 68.3623,35.6435 86.5,38.5C 86.5,42.5 86.5,46.5 86.5,50.5C 82.4862,50.3345 78.4862,50.5012 74.5,51C 73.5442,54.3936 73.2108,57.8936 73.5,61.5 Z"/></g>
<g><path style="opacity:0.749" fill="#f88382" d="M 73.5,61.5 C 77.8333,61.5 82.1667,61.5 86.5,61.5C 86.7373,62.791 86.404,63.791 85.5,64.5C 81.7675,62.8693 77.7675,61.8693 73.5,61.5 Z"/></g>
</svg>
