<?xml version="1.0" encoding="UTF-8"?>
<!DOCTYPE svg PUBLIC "-//W3C//DTD SVG 1.1//EN" "http://www.w3.org/Graphics/SVG/1.1/DTD/svg11.dtd">
<svg xmlns="http://www.w3.org/2000/svg" version="1.1" width="142px" height="146px" style="shape-rendering:geometricPrecision; text-rendering:geometricPrecision; image-rendering:optimizeQuality; fill-rule:evenodd; clip-rule:evenodd" xmlns:xlink="http://www.w3.org/1999/xlink">
<g><path style="opacity:0.979" fill="#fffefe" d="M 141.5,66.5 C 141.5,70.1667 141.5,73.8333 141.5,77.5C 133.271,122.309 106.271,143.809 60.5,142C 25.1689,134.506 4.83554,113.006 -0.5,77.5C -0.5,73.8333 -0.5,70.1667 -0.5,66.5C 6.20508,26.4667 29.8717,4.80005 70.5,1.5C 111.128,4.80005 134.795,26.4667 141.5,66.5 Z"/></g>
<g><path style="opacity:1" fill="#f53d3c" d="M 39.5,35.5 C 60.1694,35.3334 80.836,35.5 101.5,36C 103.286,36.7845 104.786,37.9512 106,39.5C 107.643,60.0774 107.976,80.7441 107,101.5C 106.654,103.848 105.487,105.681 103.5,107C 82.2556,108.644 60.9222,108.977 39.5,108C 37.714,107.215 36.214,106.049 35,104.5C 33.3678,83.5643 33.0344,62.5643 34,41.5C 35.3597,38.9774 37.193,36.9774 39.5,35.5 Z"/></g>
<g><path style="opacity:1" fill="#fff6f6" d="M 86.5,43.5 C 90.5138,43.3345 94.5138,43.5012 98.5,44C 99.626,47.7436 99.7927,51.577 99,55.5C 86.4265,60.0923 82.2599,56.0923 86.5,43.5 Z"/></g>
<g><path style="opacity:1" fill="#fffbfb" d="M 65.5,57.5 C 78.9524,56.123 85.4524,62.123 85,75.5C 81.5782,84.5676 75.0782,88.0676 65.5,86C 55.2795,80.3928 53.1128,72.5594 59,62.5C 61.3256,60.9343 63.4922,59.2676 65.5,57.5 Z"/></g>
<g><path style="opacity:1" fill="#fffafa" d="M 41.5,68.5 C 43.8333,68.5 46.1667,68.5 48.5,68.5C 49.6697,88.4184 60.003,96.2517 79.5,92C 88.6349,86.9024 92.9682,79.0691 92.5,68.5C 94.8333,68.5 97.1667,68.5 99.5,68.5C 99.6665,78.8387 99.4998,89.172 99,99.5C 98.5,100 98,100.5 97.5,101C 79.5,101.667 61.5,101.667 43.5,101C 43,100.5 42.5,100 42,99.5C 41.5002,89.172 41.3335,78.8387 41.5,68.5 Z"/></g>
</svg>
