<?xml version="1.0" encoding="UTF-8"?>
<!DOCTYPE svg PUBLIC "-//W3C//DTD SVG 1.1//EN" "http://www.w3.org/Graphics/SVG/1.1/DTD/svg11.dtd">
<svg xmlns="http://www.w3.org/2000/svg" version="1.1" width="146px" height="146px" style="shape-rendering:geometricPrecision; text-rendering:geometricPrecision; image-rendering:optimizeQuality; fill-rule:evenodd; clip-rule:evenodd" xmlns:xlink="http://www.w3.org/1999/xlink">
<g><path style="opacity:0.983" fill="#fffefe" d="M 62.5,1.5 C 105.589,-0.221862 132.089,19.7781 142,61.5C 145.212,93.2398 133.379,117.406 106.5,134C 71.6691,149.783 41.5024,143.617 16,115.5C -3.33333,86.5 -3.33333,57.5 16,28.5C 28.2154,13.7726 43.7154,4.77258 62.5,1.5 Z"/></g>
<g><path style="opacity:1" fill="#f53a39" d="M 83.5,45.5 C 88.7327,45.524 93.566,46.8573 98,49.5C 106.151,46.8561 106.651,48.3561 99.5,54C 106.398,52.8681 107.065,54.3681 101.5,58.5C 100.582,78.8722 90.5823,92.3722 71.5,99C 60.9332,101.842 50.9332,100.509 41.5,95C 48.4092,94.6918 54.7425,92.6918 60.5,89C 55.2211,87.8757 51.2211,85.0424 48.5,80.5C 54.3811,79.841 54.7145,78.6743 49.5,77C 47.2911,75.1266 45.4578,72.96 44,70.5C 43.2025,68.7412 43.3691,67.0745 44.5,65.5C 45.7678,66.4279 47.1011,66.5946 48.5,66C 43.3154,61.0528 42.1487,55.2194 45,48.5C 52.4508,57.647 61.9508,61.9803 73.5,61.5C 72.7566,57.4815 73.7566,53.8148 76.5,50.5C 78.7243,48.566 81.0576,46.8994 83.5,45.5 Z"/></g>
</svg>
