<?xml version="1.0" standalone="no"?>
<!DOCTYPE svg PUBLIC "-//W3C//DTD SVG 20010904//EN"
 "http://www.w3.org/TR/2001/REC-SVG-20010904/DTD/svg10.dtd">
<svg version="1.0" xmlns="http://www.w3.org/2000/svg"
 width="125.000000pt" height="129.000000pt" viewBox="0 0 125.000000 129.000000"
 preserveAspectRatio="xMidYMid meet">

<g transform="translate(0.000000,129.000000) scale(0.100000,-0.100000)"
fill="#000000" stroke="none">
<path d="M438 958 c-118 -136 -221 -263 -230 -284 -14 -31 3 -57 150 -229 118
-138 131 -150 165 -153 31 -3 39 1 49 22 16 36 7 52 -97 176 l-88 105 319 5
318 5 15 26 c13 24 13 29 -2 53 l-17 26 -316 2 -317 3 97 115 c97 117 110 145
80 174 -33 33 -69 20 -126 -46z"/>
</g>
</svg>
